# xmcd
#
# Track frame offsets:
#	150
#	13434
#	26744
#	39870
#	51134
#	64056
#	77906
#	91322
#	104107
#	117518
#	130930
#	145401
#	157691
#	170196
#	181714
#	196796
#	208482
#	219468
#
# Disc length: 3093 seconds
#
# Revision: 1
# Processed by: cddbd v1.5.1PL0 Copyright (c) Steve Scherf et al.
# Submitted via: audiograbber 1.82.02
#
DISCID=090c1312
DTITLE=Various Artist - Guitare Country CD 1 (Frémeaux)
DYEAR=1900
DGENRE=Country
TTITLE0=ROY HARVEY and LEONARD COPELAND - Just Picking
TTITLE1=SAM McGEE - Buck Dancer's Choice
TTITLE2=RILEY PUCKETT - John Henry
TTITLE3=DAVID FLETCHER and GWEN FOSTER - Red Rose Rag
TTITLE4=SAM McGEE - The Franklin Blues
TTITLE5=FRANK HUTCHISON - K.C. Blues
TTITLE6=DICK JUSTICE - Old Black Dog
TTITLE7=VANDER EVERIDGE - Bluegrass Twist
TTITLE8=CARTER FAMILY - Carter's Blues
TTITLE9=DARBY and TARLTON - Birmingham Rag
TTITLE10=JOHN DILLESHAW and THE STRING MARVEL - Spanish Fandango
TTITLE11=DAVID MILLER - Jailhouse Rag
TTITLE12=GENE AUTRY with ROY SMECK - Do Right Daddy Blues
TTITLE13=ROY SMECK - Slippery Fingers
TTITLE14=ROY HARVEY and JESS JOHNSON - Guitar Rag
TTITLE15=DIXON BROS. - Intoxicated Rat
TTITLE16=ANGLIN BROS. - Southern Whoopee Song
TTITLE17=DELMORE BROS.  - This Train
EXTD=ID3G: 2
EXTT0=
EXTT1=
EXTT2=
EXTT3=
EXTT4=
EXTT5=
EXTT6=
EXTT7=
EXTT8=
EXTT9=
EXTT10=
EXTT11=
EXTT12=
EXTT13=
EXTT14=
EXTT15=
EXTT16=
EXTT17=
PLAYORDER=
